<svg xmlns="http://www.w3.org/2000/svg" width="400" height="200" viewBox="0 0 400 200"><rect width="100%" height="100%" fill="#DDDDDD"/><path fill="#999999" d="M86.835 100.295h3.92q1.45 0 2.52-.36t1.78-1.03q.71-.68 1.07-1.64.35-.97.35-2.16 0-1.13-.35-2.04-.36-.92-1.06-1.57-.7-.64-1.77-.98t-2.54-.34h-3.92zm-5.24-14.18h9.16q2.83 0 4.9.67 2.06.66 3.41 1.85t2 2.85q.65 1.65.65 3.62 0 2.05-.68 3.76-.68 1.7-2.05 2.93-1.36 1.23-3.42 1.91t-4.81.68h-3.92v9.93h-5.24zm27.63 9.4.29 2.26q.94-1.79 2.22-2.81 1.29-1.03 3.05-1.03 1.38 0 2.22.61l-.31 3.6q-.1.36-.29.5-.18.15-.49.15-.29 0-.87-.1t-1.12-.1q-.8 0-1.42.24-.63.23-1.13.67-.49.44-.87 1.06-.38.63-.72 1.43v12.32h-4.81v-20.01h2.83q.74 0 1.03.27.29.26.39.94m14.1 6.5h9.08q0-.94-.26-1.77t-.79-1.45q-.52-.63-1.33-.99t-1.89-.36q-2.08 0-3.28 1.19t-1.53 3.38m12.28 2.9h-12.38q.12 1.54.55 2.66t1.13 1.86q.7.73 1.66 1.09.97.36 2.14.36t2.02-.28q.85-.27 1.48-.6t1.11-.6q.48-.28.93-.28.6 0 .89.45l1.39 1.76q-.8.93-1.79 1.57-1 .63-2.08 1.01t-2.21.54q-1.12.15-2.17.15-2.09 0-3.88-.69t-3.12-2.05q-1.33-1.35-2.09-3.35t-.76-4.63q0-2.05.67-3.85.66-1.81 1.9-3.14 1.24-1.34 3.02-2.12t4.03-.78q1.89 0 3.49.61 1.6.6 2.75 1.76t1.8 2.85q.65 1.68.65 3.85 0 1.09-.23 1.47t-.9.38m18.98-10.61h3.8l-7.94 20.01h-4.37l-7.93-20.01h3.98q.54 0 .9.26.36.25.48.64l3.86 10.69q.31.93.55 1.83.23.9.41 1.79.19-.89.43-1.79.23-.9.56-1.83l3.94-10.69q.14-.39.49-.64.35-.26.84-.26m6.51 0h4.84v20.01h-4.84zm5.5-5.83q0 .63-.26 1.17-.25.55-.67.96t-.98.65q-.57.24-1.21.24-.63 0-1.18-.24-.56-.24-.97-.65t-.65-.96q-.24-.54-.24-1.17 0-.64.24-1.21.24-.56.65-.97t.97-.65q.55-.25 1.18-.25.64 0 1.21.25.56.24.98.65t.67.97q.26.57.26 1.21m8.05 13.54h9.09q0-.94-.26-1.77-.27-.83-.79-1.45-.53-.63-1.34-.99t-1.88-.36q-2.09 0-3.29 1.19t-1.53 3.38m12.29 2.9h-12.39q.12 1.54.55 2.66t1.13 1.86q.7.73 1.67 1.09.96.36 2.13.36t2.02-.28q.85-.27 1.48-.6.64-.33 1.12-.6.47-.28.92-.28.61 0 .9.45l1.38 1.76q-.8.93-1.79 1.57-1 .63-2.08 1.01t-2.2.54q-1.12.15-2.18.15-2.08 0-3.88-.69-1.79-.69-3.12-2.05-1.32-1.35-2.08-3.35t-.76-4.63q0-2.05.66-3.85.66-1.81 1.9-3.14 1.24-1.34 3.02-2.12 1.79-.78 4.03-.78 1.89 0 3.49.61 1.6.6 2.75 1.76t1.8 2.85q.66 1.68.66 3.85 0 1.09-.24 1.47-.23.38-.89.38m29.64-10.61h3.66l-6.35 20.01h-3.87q-.66 0-.91-.86l-3.59-11.56q-.18-.59-.32-1.16-.15-.58-.25-1.16-.11.58-.26 1.18-.14.59-.32 1.18l-3.65 11.52q-.23.86-1.03.86h-3.71l-6.33-20.01h3.84q.53 0 .9.26.37.25.48.64l2.87 10.69q.21.87.38 1.71t.28 1.68q.22-.84.46-1.68t.52-1.71l3.31-10.73q.12-.39.46-.64.34-.26.83-.26h2.13q.5 0 .86.26.36.25.48.64l3.22 10.73q.25.87.48 1.72.22.85.43 1.69.26-1.66.73-3.41l2.94-10.69q.14-.39.49-.64.35-.26.84-.26m34.41-4.01h-12.51v7.82h9.86v4.03h-9.86v7.98h12.51v4.19h-17.78v-28.2h17.78zm8.14 5.22.29 2.26q.93-1.79 2.22-2.81 1.29-1.03 3.04-1.03 1.39 0 2.23.61l-.32 3.6q-.09.36-.28.5-.18.15-.5.15-.29 0-.86-.1-.58-.1-1.12-.1-.8 0-1.43.24-.62.23-1.12.67t-.88 1.06q-.38.63-.71 1.43v12.32h-4.82v-20.01h2.83q.74 0 1.04.27.29.26.39.94m14.54 0 .3 2.26q.93-1.79 2.22-2.81 1.29-1.03 3.04-1.03 1.38 0 2.22.61l-.31 3.6q-.1.36-.28.5-.19.15-.5.15-.29 0-.87-.1-.57-.1-1.12-.1-.8 0-1.42.24-.63.23-1.12.67-.5.44-.88 1.06-.38.63-.71 1.43v12.32h-4.82v-20.01h2.83q.74 0 1.03.27.3.26.39.94m19.15-1.52q2.22 0 4.05.72 1.82.72 3.12 2.05 1.29 1.33 2 3.24.7 1.91.7 4.27 0 2.38-.7 4.29-.71 1.91-2 3.25-1.3 1.35-3.12 2.07-1.83.72-4.05.72-2.24 0-4.07-.72-1.84-.72-3.13-2.07-1.3-1.34-2.01-3.25t-.71-4.29q0-2.36.71-4.27t2.01-3.24q1.29-1.33 3.13-2.05 1.83-.72 4.07-.72m0 16.91q2.5 0 3.7-1.68t1.2-4.91q0-3.24-1.2-4.94-1.2-1.69-3.7-1.69-2.53 0-3.75 1.7-1.22 1.71-1.22 4.93 0 3.21 1.22 4.9t3.75 1.69m17.81-15.39.29 2.26q.93-1.79 2.22-2.81 1.29-1.03 3.04-1.03 1.39 0 2.23.61l-.32 3.6q-.09.36-.28.5-.18.15-.5.15-.29 0-.86-.1-.58-.1-1.13-.1-.79 0-1.42.24-.62.23-1.12.67t-.88 1.06q-.38.63-.71 1.43v12.32h-4.82v-20.01h2.83q.74 0 1.04.27.29.26.39.94"/></svg>